<svg width="128" height="128" viewBox="0 0 128 128" fill="none" xmlns="http://www.w3.org/2000/svg">
<path d="M44.5905 18.2998C46.0338 19.0594 47.1226 21.1104 47.1226 23.1107C47.1226 24.9085 46.4136 26.529 44.945 27.9469C43.3752 29.4915 41.5774 30.2764 37.5008 31.188C33.728 32.0489 32.2848 32.8591 31.3479 34.6569C30.7149 35.847 30.6389 36.2268 30.7402 37.6194C30.9681 40.6579 32.6899 42.962 36.8171 45.7473C40.7671 48.4059 42.7928 51.0646 43.8816 55.0652C44.3627 56.863 44.4133 57.6986 44.4386 64.6617L44.4639 72.2579L45.2236 73.7518C46.4896 76.2332 48.5912 77.2714 50.6168 76.4358C51.4524 76.0813 51.9335 75.2457 51.9335 74.1569C51.9335 72.6883 53.7059 70.8906 55.4024 70.612C56.6178 70.4095 56.5925 70.055 55.1492 67.8015C52.4399 63.497 51.7056 62.1043 50.9713 59.9015C49.8319 56.4832 49.5787 54.3563 49.7306 50.0771C49.8825 45.9752 50.4902 43.2152 52.0601 39.6197C53.63 35.9482 54.8707 34.2264 60.5678 27.8457C62.0617 26.1745 63.3531 24.5793 63.4544 24.2755C63.6822 23.5412 63.8848 23.6171 64.5178 24.7059C64.8217 25.2123 66.5181 27.238 68.2653 29.1876C71.8861 33.1883 73.6079 35.4671 74.8992 38.0245C76.0893 40.4046 77.406 44.4559 77.7605 47.0133C78.1656 49.6973 77.963 55.7236 77.406 57.7745C76.4944 61.0409 75.7855 62.5095 72.4431 67.9281C71.7342 69.0422 71.1771 70.0803 71.1771 70.2322C71.1771 70.3842 71.6582 70.5867 72.2406 70.6627C74.0383 70.9159 75.279 72.2326 75.6082 74.2582C75.8108 75.5749 76.4438 76.1826 77.8111 76.3345C79.3303 76.5117 80.5964 75.9294 81.5585 74.6127C82.9512 72.663 83.0778 71.7008 83.0271 64.0034C82.9765 58.0531 83.0271 56.787 83.4069 55.2931C84.4451 51.2165 86.3188 48.6845 90.4714 45.7473C94.3707 42.962 95.6114 41.5187 96.3711 38.8854C97.1307 36.2014 96.0419 33.5428 93.6871 32.3527C93.1553 32.0742 91.231 31.5171 89.4332 31.112C84.7236 30.0485 82.2675 28.6053 80.9762 26.1745C79.938 24.2248 80.3178 20.6546 81.6851 19.2873C82.2928 18.6543 83.7108 17.92 84.2932 17.92C85.1287 17.92 86.1162 19.0088 86.1162 19.9457C86.1162 20.6799 85.3819 21.7181 84.8755 21.7181C84.5464 21.7181 84.2425 22.7056 84.3185 23.6171C84.4198 25.263 85.9896 26.1745 90.8259 27.4152C92.7249 27.8963 94.8012 28.5293 95.4595 28.8585C97.232 29.6941 98.8525 31.3905 99.688 33.1883C100.346 34.5809 100.422 35.0367 100.422 37.2902C100.422 39.7463 100.397 39.8729 99.3336 42.0505C98.0422 44.7091 96.3457 46.5069 93.0794 48.7351C87.5089 52.5079 86.8252 54.3056 86.9265 64.9656C87.0025 71.4729 86.9771 71.8021 86.4201 73.4733C84.9009 77.9803 81.4319 80.7656 77.7351 80.4111C77.0515 80.3351 76.4944 80.3605 76.4944 80.4617C76.4944 80.7909 78.3175 82.2089 79.4063 82.7406C81.7358 83.8547 84.7489 83.8547 87.0531 82.6899C88.623 81.905 90.522 79.7781 91.2057 77.9803C91.7374 76.6637 91.7627 76.2332 91.6614 72.8656C91.4589 66.0797 91.5855 61.9524 92.0412 60.104C93.0034 56.1287 95.257 53.0143 98.1941 51.6723C100.144 50.7607 102.701 50.7101 104.246 51.5204C106.626 52.7864 108.145 55.7489 108.145 59.1165C108.145 60.0281 107.917 61.9271 107.613 63.3197C106.803 67.2697 107.284 69.5739 108.981 69.7765C110.323 69.9284 111.285 69.0168 113.311 65.7252C114.095 64.4338 115.944 64.4845 116.653 65.8011C117.159 66.7886 117.007 67.3204 115.792 69.1941C114.501 71.1944 113.108 72.5617 111.842 73.1441C110.525 73.7518 107.917 73.7771 106.803 73.2201C103.562 71.5742 102.676 68.2319 103.866 62.1043C104.347 59.6483 104.372 59.1418 104.094 57.8252C103.511 55.0146 101.739 54.1537 99.3589 55.5463C97.9409 56.3566 96.9028 57.8252 96.1938 59.9268C95.6621 61.522 95.6368 62.0284 95.6114 69.7005V77.8031L94.9531 79.373C92.2691 85.5765 86.4201 88.6656 80.0393 87.1464C79.1278 86.9438 77.7351 86.3867 76.9249 85.9057C75.5323 85.0701 75.4563 85.0448 75.6335 85.6018C76.3172 87.83 78.039 89.805 80.1912 90.8685C81.7105 91.6281 82.065 91.7041 84.2932 91.7041C87.2557 91.7041 89.332 91.1723 91.3829 89.8303C93.1807 88.6909 94.1428 87.7287 95.8393 85.3992C98.0422 82.4367 99.9413 81.2214 102.372 81.2214C106.17 81.2214 109.107 84.6143 108.854 88.6656C108.626 92.3117 105.284 96.3884 102.524 96.4137C101.46 96.4137 100.473 95.4009 100.498 94.3627C100.524 93.4259 101.486 92.3624 102.296 92.3624C102.828 92.3624 103.891 91.2736 104.448 90.1595C105.081 88.8935 104.98 86.9944 104.22 86.0829C102.802 84.3864 101.207 84.9435 98.9538 87.906C94.9784 93.1473 91.1803 95.3249 85.5085 95.5781C82.2675 95.7553 80.647 95.4515 78.1403 94.2614C75.3044 92.9194 73.1015 90.2861 71.7848 86.6906C71.2278 85.1714 71.2278 85.146 70.9492 85.855C70.4935 87.0451 70.2149 89.4252 70.3922 90.4634C70.7973 92.6156 71.8101 93.5525 74.7726 94.5146C78.3682 95.6794 80.0393 96.996 80.9255 99.3002C81.4826 100.769 81.356 103.402 80.5964 105.073C79.938 106.593 78.1656 108.517 76.8742 109.099C73.9877 110.416 69.7592 108.77 69.8351 106.365C69.8858 104.567 71.405 104.035 73.304 105.149C74.1649 105.656 74.5448 105.732 75.0258 105.554C76.3932 105.048 77.7605 102.491 77.406 101.098C77.1528 100.11 76.2666 99.2496 75.0258 98.7938C69.8858 96.9201 68.1893 95.73 67.1005 93.2993C66.5941 92.1851 66.5181 91.5775 66.5181 89.3239C66.5181 87.0198 66.6194 86.3361 67.3284 84.2598C67.7842 82.9432 68.4172 81.348 68.7717 80.7403C69.1262 80.1579 69.4047 79.5755 69.4047 79.4742C69.4047 79.3983 66.8473 79.3223 63.7076 79.3223C60.5678 79.3223 58.0104 79.4236 58.0104 79.5249C58.0104 79.6262 58.3396 80.3605 58.7447 81.1707C61.3781 86.4374 61.8338 90.8178 60.112 94.3374C59.0233 96.515 58.2383 97.0214 52.3386 99.3509C50.7181 99.9839 50.0345 100.921 50.0851 102.364C50.1358 103.706 50.6422 104.744 51.6803 105.63C52.6678 106.441 53.1236 106.466 54.2124 105.656C55.3011 104.845 56.3393 104.845 57.1242 105.656C59.5803 108.086 54.2124 111.302 50.5409 109.606C49.1989 108.973 47.5277 107.226 46.8188 105.656C46.0085 103.883 45.9832 100.541 46.7934 99.047C47.6543 97.4265 49.0976 96.3124 51.4524 95.4262C55.1492 94.0589 56.1114 93.4765 56.6431 92.2864C56.947 91.6281 57.1242 90.6912 57.0989 89.7037C57.0989 88.1085 56.5418 85.3992 56.2886 85.6524C56.1874 85.7284 55.8835 86.488 55.5797 87.2983C53.5287 93.0207 48.971 96.1605 42.7928 96.1605C38.9441 96.1605 35.2219 94.8438 32.1075 92.413C31.3226 91.78 29.8034 90.1342 28.7399 88.7669C26.1572 85.3992 24.8912 84.8169 23.3213 86.2348C22.3844 87.0451 22.0806 88.5137 22.5617 89.9569C22.9415 91.147 24.486 92.8688 25.1444 92.8688C25.7774 92.8688 26.8662 93.9829 26.8662 94.6159C26.8662 96.8441 24.5114 97.4265 22.0806 95.8313C20.2069 94.5906 18.2572 90.8938 18.2572 88.5643C18.2572 86.1335 19.6498 83.6268 21.5995 82.4874C24.9165 80.6137 28.1322 81.5252 30.8668 85.0954C34.9687 90.4634 38.2604 92.2864 43.5524 92.0585C45.4008 92.0079 46.0085 91.856 47.4265 91.147C48.5152 90.6153 49.4015 89.9316 50.0091 89.1973C50.946 88.0579 52.0854 85.855 51.8575 85.6018C51.7816 85.5258 51.2752 85.7791 50.7434 86.1335C49.5787 86.9438 47.1986 87.7034 45.1729 87.9313C40.5646 88.463 35.146 85.3739 32.9937 80.9681C31.5505 78.0563 31.3732 76.537 31.7024 70.5108C32.1328 63.1678 31.6517 60.0027 29.7021 57.3441C28.7905 56.0781 27.5751 55.2931 26.0306 55.0146C25.195 54.8627 25.0178 54.9133 24.2328 55.6982C22.8655 57.0656 22.7642 58.8127 23.6758 64.2059C24.0556 66.3329 24.0809 67.0925 23.853 68.3838C23.4732 70.5108 22.6376 72.0806 21.3463 72.9922C19.979 73.9544 17.371 74.1822 15.5985 73.5239C13.421 72.6883 9.97737 68.2572 10.2559 66.662C10.5091 65.3201 11.9777 64.6111 13.1931 65.2694C13.4463 65.396 13.978 66.105 14.4085 66.8646C14.8136 67.5989 15.6239 68.6117 16.2062 69.1435C17.4722 70.2829 18.4091 70.3588 19.2953 69.422C19.8524 68.8396 19.903 68.5611 19.903 66.5861C19.903 65.2947 19.7005 63.6236 19.4219 62.5095C18.5104 58.9646 19.2194 55.3438 21.245 53.0902C22.663 51.495 24.0303 50.9886 26.2838 51.1405C29.4489 51.3684 32.1582 53.2675 33.7787 56.3313C35.6524 59.9268 36.0575 63.0665 35.6777 70.764C35.4245 75.6508 35.4498 75.9547 35.9562 77.6512C37.0197 81.1454 39.9822 83.6268 43.5018 83.9307C45.7806 84.1332 48.2114 83.3483 49.8319 81.8544L51.0473 80.7403L49.2748 80.7149C45.4768 80.6896 42.4383 78.1829 40.9697 73.8024C40.4633 72.3338 40.4127 71.8021 40.4886 65.2694C40.5393 58.9646 40.4886 58.1037 40.0328 56.3059C39.172 52.913 38.0832 51.5204 34.0572 48.6591C29.8034 45.646 27.879 43.1139 26.9421 39.3412C26.5876 37.8473 26.5623 37.3409 26.8155 35.8216C27.246 33.4162 28.4107 31.2639 30.0312 29.9979C31.6518 28.7066 32.2341 28.4787 36.8171 27.2633C41.9825 25.9213 43.0713 25.187 43.0713 23.0854C43.0713 22.1739 42.9447 21.946 42.1851 21.3636C39.9822 19.6924 42.1091 17.0085 44.5905 18.2998Z" fill="white"/>
</svg>
